<?xml version="1.0" encoding="UTF-8"?>
<!DOCTYPE svg PUBLIC "-//W3C//DTD SVG 1.1//EN" "http://www.w3.org/Graphics/SVG/1.1/DTD/svg11.dtd">
<svg xmlns="http://www.w3.org/2000/svg" version="1.1" width="225px" height="225px" style="shape-rendering:geometricPrecision; text-rendering:geometricPrecision; image-rendering:optimizeQuality; fill-rule:evenodd; clip-rule:evenodd" xmlns:xlink="http://www.w3.org/1999/xlink">
<g><path style="opacity:1" fill="#fdfdfd" d="M -0.5,-0.5 C 25.1667,-0.5 50.8333,-0.5 76.5,-0.5C 62.153,3.51606 53.153,12.8494 49.5,27.5C 47.7234,30.5046 46.7234,33.8379 46.5,37.5C 43.8333,54.8333 43.8333,72.1667 46.5,89.5C 46.3455,92.716 47.3455,95.3826 49.5,97.5C 59.1521,120.657 74.4854,139.157 95.5,153C 85.0233,149.771 74.6899,145.937 64.5,141.5C 46.204,151.719 34.3706,167.052 29,187.5C 24.0203,206.219 30.5203,218.552 48.5,224.5C 32.1667,224.5 15.8333,224.5 -0.5,224.5C -0.5,149.5 -0.5,74.5 -0.5,-0.5 Z"/></g>
<g><path style="opacity:1" fill="#010101" d="M 76.5,-0.5 C 79.5,-0.5 82.5,-0.5 85.5,-0.5C 109.207,6.20788 124.207,21.5412 130.5,45.5C 130.41,48.1522 131.076,50.4855 132.5,52.5C 132.646,56.3875 133.313,60.0542 134.5,63.5C 134.515,73.8474 134.182,84.1808 133.5,94.5C 129.469,131.427 117.969,165.761 99,197.5C 94.8333,202.333 90.6667,207.167 86.5,212C 78.6619,218.087 69.9952,222.254 60.5,224.5C 56.5,224.5 52.5,224.5 48.5,224.5C 30.5203,218.552 24.0203,206.219 29,187.5C 34.3706,167.052 46.204,151.719 64.5,141.5C 74.6899,145.937 85.0233,149.771 95.5,153C 74.4854,139.157 59.1521,120.657 49.5,97.5C 48.871,94.6027 47.871,91.936 46.5,89.5C 43.8333,72.1667 43.8333,54.8333 46.5,37.5C 48.2766,34.4954 49.2766,31.1621 49.5,27.5C 53.153,12.8494 62.153,3.51606 76.5,-0.5 Z"/></g>
<g><path style="opacity:1" fill="#fdfdfd" d="M 85.5,-0.5 C 131.833,-0.5 178.167,-0.5 224.5,-0.5C 224.5,74.5 224.5,149.5 224.5,224.5C 169.833,224.5 115.167,224.5 60.5,224.5C 69.9952,222.254 78.6619,218.087 86.5,212C 90.6667,207.167 94.8333,202.333 99,197.5C 117.969,165.761 129.469,131.427 133.5,94.5C 134.972,88.3986 135.639,82.0653 135.5,75.5C 135.499,71.3188 135.166,67.3188 134.5,63.5C 133.313,60.0542 132.646,56.3875 132.5,52.5C 132.59,49.8478 131.924,47.5145 130.5,45.5C 124.207,21.5412 109.207,6.20788 85.5,-0.5 Z"/></g>
<g><path style="opacity:1" fill="#636363" d="M 49.5,27.5 C 49.2766,31.1621 48.2766,34.4954 46.5,37.5C 46.7234,33.8379 47.7234,30.5046 49.5,27.5 Z"/></g>
<g><path style="opacity:1" fill="#5e5e5e" d="M 130.5,45.5 C 131.924,47.5145 132.59,49.8478 132.5,52.5C 131.076,50.4855 130.41,48.1522 130.5,45.5 Z"/></g>
<g><path style="opacity:1" fill="#030303" d="M 150.5,173.5 C 148.796,176.939 147.462,180.605 146.5,184.5C 143.2,196.948 136.533,207.115 126.5,215C 118.283,219.64 112.783,217.473 110,208.5C 109.514,198.925 110.847,189.592 114,180.5C 124.878,154.415 136.545,128.749 149,103.5C 155.914,90.8426 164.414,79.3426 174.5,69C 177.328,66.7519 180.328,64.7519 183.5,63C 189.586,60.9332 193.752,62.7666 196,68.5C 196.835,74.983 196.168,81.3163 194,87.5C 185.592,112.555 172.259,134.555 154,153.5C 152.83,160.176 151.664,166.842 150.5,173.5 Z"/></g>
<g><path style="opacity:1" fill="#c2c2c2" d="M 134.5,63.5 C 135.166,67.3188 135.499,71.3188 135.5,75.5C 135.639,82.0653 134.972,88.3986 133.5,94.5C 134.182,84.1808 134.515,73.8474 134.5,63.5 Z"/></g>
<g><path style="opacity:1" fill="#9a9a9a" d="M 46.5,89.5 C 47.871,91.936 48.871,94.6027 49.5,97.5C 47.3455,95.3826 46.3455,92.716 46.5,89.5 Z"/></g>
<g><path style="opacity:1" fill="#ababab" d="M 150.5,173.5 C 150.323,177.708 148.99,181.374 146.5,184.5C 147.462,180.605 148.796,176.939 150.5,173.5 Z"/></g>
</svg>
